<?xml version="1.0" encoding="UTF-8"?>
<svg xmlns="http://www.w3.org/2000/svg" version="1.1" width="300" height="300" viewBox="0 0 300 300"><rect x="0" y="0" width="300" height="300" fill="#ffffff"/><g transform="scale(10.345)"><g transform="translate(0,0)"><path fill-rule="evenodd" d="M10 0L10 1L8 1L8 3L9 3L9 4L8 4L8 8L6 8L6 9L5 9L5 10L4 10L4 8L3 8L3 10L4 10L4 11L5 11L5 12L6 12L6 13L9 13L9 12L10 12L10 13L11 13L11 14L10 14L10 17L8 17L8 16L6 16L6 17L5 17L5 18L4 18L4 16L5 16L5 15L4 15L4 16L3 16L3 14L4 14L4 13L3 13L3 14L2 14L2 13L0 13L0 14L1 14L1 15L0 15L0 17L1 17L1 18L0 18L0 19L1 19L1 18L2 18L2 16L3 16L3 19L2 19L2 21L8 21L8 23L10 23L10 24L9 24L9 25L8 25L8 26L9 26L9 25L11 25L11 26L10 26L10 27L8 27L8 29L9 29L9 28L10 28L10 29L14 29L14 27L13 27L13 28L12 28L12 26L15 26L15 25L16 25L16 28L15 28L15 29L16 29L16 28L17 28L17 29L18 29L18 28L19 28L19 29L21 29L21 27L22 27L22 26L24 26L24 28L23 28L23 29L24 29L24 28L25 28L25 29L26 29L26 28L25 28L25 26L28 26L28 27L27 27L27 29L28 29L28 27L29 27L29 26L28 26L28 24L27 24L27 23L28 23L28 22L29 22L29 21L27 21L27 20L29 20L29 17L28 17L28 15L29 15L29 14L27 14L27 13L29 13L29 12L28 12L28 10L29 10L29 9L28 9L28 8L26 8L26 9L25 9L25 8L22 8L22 9L21 9L21 10L19 10L19 11L18 11L18 12L17 12L17 10L18 10L18 9L17 9L17 8L18 8L18 7L19 7L19 6L20 6L20 8L19 8L19 9L20 9L20 8L21 8L21 6L20 6L20 5L19 5L19 4L20 4L20 2L21 2L21 1L20 1L20 0L17 0L17 1L18 1L18 2L17 2L17 3L18 3L18 7L17 7L17 6L16 6L16 5L17 5L17 4L15 4L15 3L16 3L16 0L14 0L14 1L13 1L13 2L14 2L14 4L13 4L13 3L12 3L12 7L11 7L11 4L10 4L10 3L9 3L9 2L11 2L11 0ZM19 1L19 2L18 2L18 3L19 3L19 2L20 2L20 1ZM14 4L14 5L13 5L13 7L12 7L12 8L14 8L14 9L13 9L13 10L14 10L14 12L12 12L12 16L11 16L11 17L10 17L10 18L9 18L9 20L11 20L11 21L12 21L12 22L11 22L11 24L12 24L12 25L13 25L13 23L12 23L12 22L13 22L13 21L14 21L14 23L15 23L15 24L16 24L16 22L17 22L17 21L18 21L18 22L19 22L19 24L18 24L18 23L17 23L17 24L18 24L18 26L19 26L19 25L20 25L20 22L19 22L19 21L20 21L20 20L23 20L23 19L22 19L22 17L24 17L24 20L25 20L25 25L27 25L27 24L26 24L26 23L27 23L27 22L26 22L26 20L27 20L27 18L28 18L28 17L27 17L27 15L26 15L26 13L27 13L27 12L26 12L26 13L25 13L25 12L23 12L23 11L24 11L24 10L25 10L25 9L23 9L23 11L22 11L22 10L21 10L21 11L22 11L22 12L23 12L23 13L22 13L22 15L20 15L20 14L19 14L19 13L21 13L21 12L20 12L20 11L19 11L19 13L17 13L17 14L16 14L16 13L15 13L15 11L16 11L16 8L17 8L17 7L16 7L16 6L15 6L15 7L16 7L16 8L14 8L14 5L15 5L15 4ZM9 5L9 8L8 8L8 9L10 9L10 10L9 10L9 11L6 11L6 10L7 10L7 9L6 9L6 10L5 10L5 11L6 11L6 12L9 12L9 11L11 11L11 8L10 8L10 5ZM0 8L0 9L2 9L2 8ZM26 9L26 10L28 10L28 9ZM0 11L0 12L3 12L3 11ZM14 13L14 15L13 15L13 16L12 16L12 18L10 18L10 19L12 19L12 21L13 21L13 19L14 19L14 21L15 21L15 20L20 20L20 19L21 19L21 18L20 18L20 19L19 19L19 17L22 17L22 16L24 16L24 15L25 15L25 17L26 17L26 15L25 15L25 14L24 14L24 15L22 15L22 16L20 16L20 15L17 15L17 16L16 16L16 17L18 17L18 18L17 18L17 19L14 19L14 18L15 18L15 17L14 17L14 15L15 15L15 13ZM6 14L6 15L9 15L9 14ZM1 15L1 16L2 16L2 15ZM18 16L18 17L19 17L19 16ZM6 17L6 18L5 18L5 19L3 19L3 20L7 20L7 19L6 19L6 18L7 18L7 17ZM25 18L25 19L26 19L26 18ZM0 20L0 21L1 21L1 20ZM9 21L9 22L10 22L10 21ZM21 21L21 24L24 24L24 21ZM22 22L22 23L23 23L23 22ZM21 25L21 26L22 26L22 25ZM0 0L0 7L7 7L7 0ZM1 1L1 6L6 6L6 1ZM2 2L2 5L5 5L5 2ZM22 0L22 7L29 7L29 0ZM23 1L23 6L28 6L28 1ZM24 2L24 5L27 5L27 2ZM0 22L0 29L7 29L7 22ZM1 23L1 28L6 28L6 23ZM2 24L2 27L5 27L5 24Z" fill="#000000"/></g></g></svg>
