<?xml version="1.0" encoding="UTF-8"?>
<svg xmlns="http://www.w3.org/2000/svg" version="1.1" width="300" height="300" viewBox="0 0 300 300"><rect x="0" y="0" width="300" height="300" fill="#ffffff"/><g transform="scale(10.345)"><g transform="translate(0,0)"><path fill-rule="evenodd" d="M10 0L10 2L11 2L11 0ZM12 0L12 1L13 1L13 2L12 2L12 4L16 4L16 5L11 5L11 6L10 6L10 4L11 4L11 3L8 3L8 4L9 4L9 5L8 5L8 7L9 7L9 8L6 8L6 9L10 9L10 11L11 11L11 12L9 12L9 11L8 11L8 12L9 12L9 13L7 13L7 12L5 12L5 11L7 11L7 10L5 10L5 11L4 11L4 10L3 10L3 9L5 9L5 8L0 8L0 10L2 10L2 11L3 11L3 12L5 12L5 13L1 13L1 12L0 12L0 14L1 14L1 15L3 15L3 14L4 14L4 15L7 15L7 16L6 16L6 17L7 17L7 16L8 16L8 17L9 17L9 18L10 18L10 17L11 17L11 16L12 16L12 15L10 15L10 14L9 14L9 13L11 13L11 12L12 12L12 13L15 13L15 12L17 12L17 15L16 15L16 14L13 14L13 15L14 15L14 16L13 16L13 17L18 17L18 16L17 16L17 15L18 15L18 14L20 14L20 15L21 15L21 14L22 14L22 16L23 16L23 15L24 15L24 16L25 16L25 13L26 13L26 15L27 15L27 16L26 16L26 17L22 17L22 18L21 18L21 17L19 17L19 18L14 18L14 20L13 20L13 18L12 18L12 20L11 20L11 19L8 19L8 18L5 18L5 17L3 17L3 16L0 16L0 21L1 21L1 17L2 17L2 18L3 18L3 19L2 19L2 20L4 20L4 21L8 21L8 23L9 23L9 21L13 21L13 22L14 22L14 25L15 25L15 23L16 23L16 24L17 24L17 25L18 25L18 27L20 27L20 28L21 28L21 29L22 29L22 28L21 28L21 25L25 25L25 26L22 26L22 27L23 27L23 29L24 29L24 27L25 27L25 28L26 28L26 29L27 29L27 28L28 28L28 26L29 26L29 25L28 25L28 23L27 23L27 22L29 22L29 20L28 20L28 19L27 19L27 16L28 16L28 15L27 15L27 12L28 12L28 11L27 11L27 12L25 12L25 13L21 13L21 12L22 12L22 11L23 11L23 12L24 12L24 11L25 11L25 9L26 9L26 8L25 8L25 9L24 9L24 8L23 8L23 9L22 9L22 8L21 8L21 4L18 4L18 3L17 3L17 2L18 2L18 1L20 1L20 2L19 2L19 3L20 3L20 2L21 2L21 0L16 0L16 1L13 1L13 0ZM8 1L8 2L9 2L9 1ZM13 2L13 3L14 3L14 2ZM17 4L17 5L16 5L16 6L15 6L15 7L16 7L16 6L17 6L17 8L15 8L15 9L13 9L13 10L12 10L12 9L11 9L11 8L10 8L10 9L11 9L11 11L13 11L13 12L14 12L14 11L15 11L15 9L17 9L17 12L19 12L19 13L20 13L20 12L21 12L21 8L20 8L20 5L18 5L18 4ZM9 6L9 7L10 7L10 6ZM11 6L11 7L12 7L12 8L14 8L14 6L13 6L13 7L12 7L12 6ZM18 6L18 8L17 8L17 9L18 9L18 10L20 10L20 8L19 8L19 6ZM18 8L18 9L19 9L19 8ZM27 8L27 9L28 9L28 10L29 10L29 9L28 9L28 8ZM23 10L23 11L24 11L24 10ZM19 11L19 12L20 12L20 11ZM5 13L5 14L7 14L7 13ZM28 13L28 14L29 14L29 13ZM9 15L9 16L10 16L10 15ZM15 15L15 16L16 16L16 15ZM28 17L28 18L29 18L29 17ZM4 18L4 19L5 19L5 20L8 20L8 19L5 19L5 18ZM19 18L19 19L16 19L16 20L18 20L18 21L15 21L15 20L14 20L14 22L18 22L18 21L19 21L19 22L20 22L20 20L22 20L22 19L23 19L23 20L24 20L24 19L25 19L25 21L26 21L26 20L27 20L27 19L25 19L25 18L24 18L24 19L23 19L23 18L22 18L22 19L21 19L21 18ZM19 19L19 20L20 20L20 19ZM21 21L21 24L24 24L24 21ZM22 22L22 23L23 23L23 22ZM11 23L11 24L8 24L8 29L9 29L9 26L10 26L10 25L13 25L13 24L12 24L12 23ZM17 23L17 24L18 24L18 25L20 25L20 24L19 24L19 23ZM26 23L26 24L25 24L25 25L26 25L26 24L27 24L27 23ZM27 25L27 26L25 26L25 27L26 27L26 28L27 28L27 26L28 26L28 25ZM13 26L13 27L12 27L12 28L11 28L11 27L10 27L10 28L11 28L11 29L13 29L13 27L14 27L14 26ZM15 26L15 27L16 27L16 28L17 28L17 29L18 29L18 28L17 28L17 27L16 27L16 26ZM14 28L14 29L15 29L15 28ZM0 0L0 7L7 7L7 0ZM1 1L1 6L6 6L6 1ZM2 2L2 5L5 5L5 2ZM22 0L22 7L29 7L29 0ZM23 1L23 6L28 6L28 1ZM24 2L24 5L27 5L27 2ZM0 22L0 29L7 29L7 22ZM1 23L1 28L6 28L6 23ZM2 24L2 27L5 27L5 24Z" fill="#000000"/></g></g></svg>
