<?xml version="1.0" encoding="UTF-8"?>
<svg xmlns="http://www.w3.org/2000/svg" version="1.1" width="300" height="300" viewBox="0 0 300 300"><rect x="0" y="0" width="300" height="300" fill="#ffffff"/><g transform="scale(10.345)"><g transform="translate(0,0)"><path fill-rule="evenodd" d="M9 0L9 1L8 1L8 2L9 2L9 3L8 3L8 4L10 4L10 7L11 7L11 4L12 4L12 5L13 5L13 6L12 6L12 9L13 9L13 10L11 10L11 11L10 11L10 9L11 9L11 8L6 8L6 9L5 9L5 8L0 8L0 9L1 9L1 10L0 10L0 11L1 11L1 10L2 10L2 11L3 11L3 10L4 10L4 11L5 11L5 13L4 13L4 12L1 12L1 13L0 13L0 15L2 15L2 14L1 14L1 13L3 13L3 15L4 15L4 16L3 16L3 17L2 17L2 18L3 18L3 19L2 19L2 21L3 21L3 19L5 19L5 20L4 20L4 21L5 21L5 20L6 20L6 21L7 21L7 20L9 20L9 21L8 21L8 23L9 23L9 24L8 24L8 29L9 29L9 26L11 26L11 25L13 25L13 27L11 27L11 28L10 28L10 29L11 29L11 28L13 28L13 27L14 27L14 26L15 26L15 27L16 27L16 28L17 28L17 29L18 29L18 28L17 28L17 27L16 27L16 26L15 26L15 24L14 24L14 25L13 25L13 23L14 23L14 22L13 22L13 20L12 20L12 19L14 19L14 21L18 21L18 22L15 22L15 23L16 23L16 24L17 24L17 25L18 25L18 27L20 27L20 28L21 28L21 29L22 29L22 28L21 28L21 25L25 25L25 26L22 26L22 27L23 27L23 29L24 29L24 27L25 27L25 28L26 28L26 29L27 29L27 28L28 28L28 26L29 26L29 24L28 24L28 25L27 25L27 24L26 24L26 23L27 23L27 22L29 22L29 20L28 20L28 19L27 19L27 16L28 16L28 15L27 15L27 12L28 12L28 11L27 11L27 12L25 12L25 13L21 13L21 12L22 12L22 11L23 11L23 12L24 12L24 11L25 11L25 9L26 9L26 8L25 8L25 9L24 9L24 8L23 8L23 9L22 9L22 8L21 8L21 4L18 4L18 3L17 3L17 2L18 2L18 1L20 1L20 2L19 2L19 3L20 3L20 2L21 2L21 0L16 0L16 1L11 1L11 2L10 2L10 0ZM12 2L12 4L13 4L13 5L14 5L14 6L13 6L13 8L14 8L14 10L13 10L13 11L12 11L12 13L11 13L11 12L10 12L10 13L11 13L11 15L10 15L10 14L9 14L9 12L8 12L8 13L6 13L6 14L7 14L7 15L5 15L5 14L4 14L4 15L5 15L5 16L7 16L7 15L8 15L8 14L9 14L9 16L8 16L8 17L5 17L5 19L6 19L6 20L7 20L7 19L8 19L8 17L10 17L10 18L9 18L9 19L11 19L11 18L13 18L13 17L14 17L14 18L19 18L19 19L16 19L16 20L18 20L18 21L19 21L19 22L20 22L20 20L22 20L22 19L23 19L23 20L24 20L24 19L25 19L25 21L26 21L26 20L27 20L27 19L25 19L25 18L24 18L24 19L23 19L23 18L22 18L22 17L26 17L26 16L27 16L27 15L26 15L26 13L25 13L25 16L24 16L24 15L23 15L23 16L22 16L22 14L21 14L21 15L20 15L20 14L18 14L18 15L17 15L17 12L19 12L19 13L20 13L20 12L21 12L21 8L20 8L20 5L18 5L18 4L17 4L17 3L16 3L16 2L15 2L15 5L14 5L14 4L13 4L13 3L14 3L14 2ZM10 3L10 4L11 4L11 3ZM16 4L16 5L15 5L15 6L14 6L14 8L15 8L15 9L16 9L16 10L14 10L14 13L12 13L12 14L13 14L13 15L12 15L12 17L13 17L13 15L14 15L14 14L15 14L15 16L14 16L14 17L15 17L15 16L16 16L16 17L18 17L18 16L16 16L16 14L15 14L15 12L17 12L17 9L18 9L18 10L20 10L20 8L19 8L19 6L18 6L18 8L17 8L17 6L16 6L16 5L17 5L17 4ZM8 5L8 7L9 7L9 5ZM15 6L15 7L16 7L16 6ZM16 8L16 9L17 9L17 8ZM18 8L18 9L19 9L19 8ZM27 8L27 9L28 9L28 10L29 10L29 9L28 9L28 8ZM2 9L2 10L3 10L3 9ZM4 9L4 10L5 10L5 11L6 11L6 12L7 12L7 11L9 11L9 9L6 9L6 10L5 10L5 9ZM6 10L6 11L7 11L7 10ZM23 10L23 11L24 11L24 10ZM19 11L19 12L20 12L20 11ZM28 13L28 14L29 14L29 13ZM0 16L0 21L1 21L1 16ZM3 17L3 18L4 18L4 17ZM19 17L19 18L21 18L21 19L22 19L22 18L21 18L21 17ZM28 17L28 18L29 18L29 17ZM6 18L6 19L7 19L7 18ZM19 19L19 20L20 20L20 19ZM9 21L9 23L10 23L10 24L11 24L11 23L13 23L13 22L12 22L12 21L11 21L11 22L10 22L10 21ZM21 21L21 24L24 24L24 21ZM22 22L22 23L23 23L23 22ZM17 23L17 24L18 24L18 25L20 25L20 24L19 24L19 23ZM25 24L25 25L26 25L26 24ZM25 26L25 27L26 27L26 28L27 28L27 26ZM14 28L14 29L15 29L15 28ZM0 0L0 7L7 7L7 0ZM1 1L1 6L6 6L6 1ZM2 2L2 5L5 5L5 2ZM22 0L22 7L29 7L29 0ZM23 1L23 6L28 6L28 1ZM24 2L24 5L27 5L27 2ZM0 22L0 29L7 29L7 22ZM1 23L1 28L6 28L6 23ZM2 24L2 27L5 27L5 24Z" fill="#000000"/></g></g></svg>
