<?xml version="1.0" encoding="UTF-8"?>
<svg xmlns="http://www.w3.org/2000/svg" version="1.1" width="300" height="300" viewBox="0 0 300 300"><rect x="0" y="0" width="300" height="300" fill="#ffffff"/><g transform="scale(10.345)"><g transform="translate(0,0)"><path fill-rule="evenodd" d="M9 0L9 1L8 1L8 3L9 3L9 4L8 4L8 8L6 8L6 9L5 9L5 11L4 11L4 12L5 12L5 15L4 15L4 14L3 14L3 11L2 11L2 10L3 10L3 9L4 9L4 8L3 8L3 9L2 9L2 8L0 8L0 10L1 10L1 12L0 12L0 13L1 13L1 14L0 14L0 15L1 15L1 16L0 16L0 17L1 17L1 18L0 18L0 19L1 19L1 18L3 18L3 19L2 19L2 20L3 20L3 19L5 19L5 20L4 20L4 21L5 21L5 20L6 20L6 21L8 21L8 23L9 23L9 20L6 20L6 19L7 19L7 18L8 18L8 17L7 17L7 16L8 16L8 15L9 15L9 16L10 16L10 15L11 15L11 17L9 17L9 19L10 19L10 21L11 21L11 22L10 22L10 23L11 23L11 22L13 22L13 25L12 25L12 24L9 24L9 25L8 25L8 26L9 26L9 27L8 27L8 29L14 29L14 27L13 27L13 28L12 28L12 26L15 26L15 25L16 25L16 28L15 28L15 29L16 29L16 28L17 28L17 29L18 29L18 28L19 28L19 29L21 29L21 27L22 27L22 26L24 26L24 28L23 28L23 29L24 29L24 28L25 28L25 29L26 29L26 28L25 28L25 26L27 26L27 25L25 25L25 20L24 20L24 17L22 17L22 16L24 16L24 15L25 15L25 17L26 17L26 15L27 15L27 17L28 17L28 18L27 18L27 20L26 20L26 22L27 22L27 23L26 23L26 24L28 24L28 25L29 25L29 24L28 24L28 22L29 22L29 21L27 21L27 20L29 20L29 17L28 17L28 15L29 15L29 14L27 14L27 13L29 13L29 12L28 12L28 10L29 10L29 9L28 9L28 8L26 8L26 9L25 9L25 8L22 8L22 9L21 9L21 10L19 10L19 11L18 11L18 12L17 12L17 10L18 10L18 9L17 9L17 8L18 8L18 7L19 7L19 6L20 6L20 8L19 8L19 9L20 9L20 8L21 8L21 6L20 6L20 5L19 5L19 4L20 4L20 2L21 2L21 1L20 1L20 0L17 0L17 1L18 1L18 2L17 2L17 3L15 3L15 2L16 2L16 0L14 0L14 1L13 1L13 0L12 0L12 1L11 1L11 2L9 2L9 1L10 1L10 0ZM19 1L19 2L18 2L18 3L17 3L17 5L16 5L16 6L15 6L15 5L13 5L13 4L14 4L14 2L13 2L13 3L12 3L12 4L9 4L9 5L10 5L10 6L9 6L9 7L10 7L10 8L8 8L8 9L9 9L9 10L8 10L8 11L5 11L5 12L9 12L9 13L6 13L6 14L7 14L7 15L5 15L5 16L7 16L7 15L8 15L8 14L9 14L9 15L10 15L10 14L9 14L9 13L11 13L11 12L13 12L13 11L12 11L12 10L13 10L13 9L12 9L12 6L13 6L13 8L14 8L14 6L15 6L15 7L16 7L16 8L17 8L17 7L18 7L18 3L19 3L19 2L20 2L20 1ZM11 5L11 6L10 6L10 7L11 7L11 6L12 6L12 5ZM16 6L16 7L17 7L17 6ZM10 8L10 10L9 10L9 11L11 11L11 10L12 10L12 9L11 9L11 8ZM6 9L6 10L7 10L7 9ZM14 9L14 10L15 10L15 11L14 11L14 13L13 13L13 14L15 14L15 15L16 15L16 16L17 16L17 15L20 15L20 16L22 16L22 15L24 15L24 14L25 14L25 15L26 15L26 13L27 13L27 12L26 12L26 13L25 13L25 12L23 12L23 11L24 11L24 10L25 10L25 9L23 9L23 11L22 11L22 10L21 10L21 11L22 11L22 12L23 12L23 13L22 13L22 15L20 15L20 14L19 14L19 13L21 13L21 12L20 12L20 11L19 11L19 13L17 13L17 15L16 15L16 13L15 13L15 11L16 11L16 9ZM26 9L26 10L28 10L28 9ZM1 12L1 13L2 13L2 12ZM1 14L1 15L2 15L2 14ZM13 16L13 17L15 17L15 18L13 18L13 19L12 19L12 17L11 17L11 18L10 18L10 19L12 19L12 20L11 20L11 21L12 21L12 20L14 20L14 21L13 21L13 22L14 22L14 24L16 24L16 22L17 22L17 21L18 21L18 22L19 22L19 24L18 24L18 23L17 23L17 24L18 24L18 26L19 26L19 25L20 25L20 22L19 22L19 21L20 21L20 20L23 20L23 19L22 19L22 17L19 17L19 16L18 16L18 17L15 17L15 16ZM3 17L3 18L4 18L4 17ZM6 17L6 18L7 18L7 17ZM18 17L18 18L17 18L17 19L14 19L14 20L20 20L20 19L21 19L21 18L20 18L20 19L19 19L19 17ZM25 18L25 19L26 19L26 18ZM0 20L0 21L1 21L1 20ZM21 21L21 24L24 24L24 21ZM22 22L22 23L23 23L23 22ZM9 25L9 26L10 26L10 27L9 27L9 28L10 28L10 27L11 27L11 26L10 26L10 25ZM21 25L21 26L22 26L22 25ZM28 26L28 27L27 27L27 29L28 29L28 27L29 27L29 26ZM0 0L0 7L7 7L7 0ZM1 1L1 6L6 6L6 1ZM2 2L2 5L5 5L5 2ZM22 0L22 7L29 7L29 0ZM23 1L23 6L28 6L28 1ZM24 2L24 5L27 5L27 2ZM0 22L0 29L7 29L7 22ZM1 23L1 28L6 28L6 23ZM2 24L2 27L5 27L5 24Z" fill="#000000"/></g></g></svg>
