<?xml version="1.0" encoding="UTF-8"?>
<svg xmlns="http://www.w3.org/2000/svg" version="1.1" width="300" height="300" viewBox="0 0 300 300"><rect x="0" y="0" width="300" height="300" fill="#ffffff"/><g transform="scale(10.345)"><g transform="translate(0,0)"><path fill-rule="evenodd" d="M9 0L9 1L8 1L8 2L9 2L9 3L8 3L8 4L10 4L10 7L11 7L11 4L12 4L12 5L13 5L13 6L12 6L12 9L13 9L13 10L11 10L11 11L10 11L10 9L11 9L11 8L6 8L6 9L5 9L5 8L0 8L0 21L1 21L1 18L2 18L2 17L4 17L4 19L3 19L3 20L2 20L2 21L5 21L5 20L6 20L6 21L7 21L7 20L8 20L8 19L7 19L7 18L6 18L6 19L5 19L5 17L9 17L9 18L10 18L10 20L11 20L11 21L12 21L12 22L13 22L13 21L12 21L12 19L13 19L13 18L15 18L15 19L14 19L14 24L13 24L13 23L12 23L12 25L13 25L13 26L11 26L11 23L9 23L9 21L8 21L8 23L9 23L9 24L8 24L8 29L13 29L13 28L12 28L12 27L13 27L13 26L15 26L15 27L14 27L14 28L15 28L15 27L16 27L16 28L17 28L17 29L18 29L18 28L17 28L17 27L16 27L16 26L15 26L15 25L14 25L14 24L15 24L15 23L16 23L16 24L17 24L17 25L18 25L18 27L20 27L20 28L21 28L21 29L22 29L22 28L21 28L21 25L25 25L25 26L22 26L22 27L23 27L23 29L24 29L24 27L25 27L25 28L26 28L26 29L27 29L27 28L28 28L28 26L29 26L29 23L28 23L28 24L26 24L26 23L27 23L27 22L29 22L29 20L28 20L28 19L27 19L27 16L28 16L28 15L27 15L27 12L28 12L28 11L27 11L27 12L25 12L25 13L21 13L21 12L22 12L22 11L23 11L23 12L24 12L24 11L25 11L25 9L26 9L26 8L25 8L25 9L24 9L24 8L23 8L23 9L22 9L22 8L21 8L21 4L18 4L18 3L15 3L15 2L16 2L16 1L14 1L14 0L13 0L13 1L11 1L11 2L10 2L10 0ZM17 0L17 2L18 2L18 1L20 1L20 2L19 2L19 3L20 3L20 2L21 2L21 0ZM13 1L13 2L12 2L12 4L13 4L13 5L14 5L14 4L15 4L15 5L16 5L16 4L15 4L15 3L14 3L14 1ZM10 3L10 4L11 4L11 3ZM13 3L13 4L14 4L14 3ZM17 4L17 7L16 7L16 6L15 6L15 7L14 7L14 6L13 6L13 9L14 9L14 10L16 10L16 9L17 9L17 11L12 11L12 13L11 13L11 12L10 12L10 13L8 13L8 11L9 11L9 9L6 9L6 10L5 10L5 9L4 9L4 10L2 10L2 9L1 9L1 11L4 11L4 12L2 12L2 13L4 13L4 14L2 14L2 16L1 16L1 17L2 17L2 16L4 16L4 14L5 14L5 15L6 15L6 16L7 16L7 15L6 15L6 14L8 14L8 15L9 15L9 17L11 17L11 18L13 18L13 17L12 17L12 15L13 15L13 16L14 16L14 17L15 17L15 18L16 18L16 19L15 19L15 20L18 20L18 21L15 21L15 22L18 22L18 21L19 21L19 22L20 22L20 20L22 20L22 19L23 19L23 20L24 20L24 19L25 19L25 21L26 21L26 20L27 20L27 19L25 19L25 18L24 18L24 19L23 19L23 18L22 18L22 17L26 17L26 16L27 16L27 15L26 15L26 13L25 13L25 16L24 16L24 15L23 15L23 16L22 16L22 14L21 14L21 15L20 15L20 14L18 14L18 15L17 15L17 16L15 16L15 15L13 15L13 14L14 14L14 13L15 13L15 14L16 14L16 13L17 13L17 12L19 12L19 13L20 13L20 12L21 12L21 8L20 8L20 5L18 5L18 4ZM8 5L8 7L9 7L9 5ZM18 6L18 8L17 8L17 9L18 9L18 10L20 10L20 8L19 8L19 6ZM15 7L15 8L14 8L14 9L16 9L16 7ZM18 8L18 9L19 9L19 8ZM27 8L27 9L28 9L28 10L29 10L29 9L28 9L28 8ZM6 10L6 11L5 11L5 13L7 13L7 12L6 12L6 11L7 11L7 10ZM23 10L23 11L24 11L24 10ZM19 11L19 12L20 12L20 11ZM13 12L13 13L12 13L12 14L13 14L13 13L14 13L14 12ZM15 12L15 13L16 13L16 12ZM10 13L10 16L11 16L11 13ZM28 13L28 14L29 14L29 13ZM17 16L17 17L18 17L18 16ZM19 17L19 18L17 18L17 19L19 19L19 20L20 20L20 19L19 19L19 18L21 18L21 19L22 19L22 18L21 18L21 17ZM28 17L28 18L29 18L29 17ZM4 19L4 20L5 20L5 19ZM6 19L6 20L7 20L7 19ZM21 21L21 24L24 24L24 21ZM22 22L22 23L23 23L23 22ZM17 23L17 24L18 24L18 25L20 25L20 24L19 24L19 23ZM25 24L25 25L26 25L26 24ZM9 26L9 28L11 28L11 27L10 27L10 26ZM25 26L25 27L26 27L26 28L27 28L27 26ZM0 0L0 7L7 7L7 0ZM1 1L1 6L6 6L6 1ZM2 2L2 5L5 5L5 2ZM22 0L22 7L29 7L29 0ZM23 1L23 6L28 6L28 1ZM24 2L24 5L27 5L27 2ZM0 22L0 29L7 29L7 22ZM1 23L1 28L6 28L6 23ZM2 24L2 27L5 27L5 24Z" fill="#000000"/></g></g></svg>
