<?xml version="1.0" encoding="UTF-8"?>
<svg xmlns="http://www.w3.org/2000/svg" version="1.1" width="300" height="300" viewBox="0 0 300 300"><rect x="0" y="0" width="300" height="300" fill="#ffffff"/><g transform="scale(10.345)"><g transform="translate(0,0)"><path fill-rule="evenodd" d="M9 0L9 1L8 1L8 3L9 3L9 4L8 4L8 8L6 8L6 9L8 9L8 10L5 10L5 11L7 11L7 12L6 12L6 13L5 13L5 12L4 12L4 13L1 13L1 12L2 12L2 11L3 11L3 10L4 10L4 8L3 8L3 9L2 9L2 8L0 8L0 11L1 11L1 12L0 12L0 13L1 13L1 14L0 14L0 15L1 15L1 16L0 16L0 17L2 17L2 21L4 21L4 20L5 20L5 21L8 21L8 23L10 23L10 25L8 25L8 26L10 26L10 27L11 27L11 29L12 29L12 27L13 27L13 28L14 28L14 29L16 29L16 28L17 28L17 29L18 29L18 28L19 28L19 29L21 29L21 27L22 27L22 26L24 26L24 28L23 28L23 29L24 29L24 28L25 28L25 29L26 29L26 28L25 28L25 26L28 26L28 27L27 27L27 29L28 29L28 27L29 27L29 26L28 26L28 22L29 22L29 21L27 21L27 20L29 20L29 17L28 17L28 15L29 15L29 14L27 14L27 13L29 13L29 12L28 12L28 10L29 10L29 9L28 9L28 8L26 8L26 9L25 9L25 8L22 8L22 9L21 9L21 10L19 10L19 11L18 11L18 12L16 12L16 13L19 13L19 14L20 14L20 15L13 15L13 13L14 13L14 14L15 14L15 11L13 11L13 12L12 12L12 13L8 13L8 11L11 11L11 10L12 10L12 9L11 9L11 8L10 8L10 7L11 7L11 6L12 6L12 8L13 8L13 6L14 6L14 9L13 9L13 10L15 10L15 9L16 9L16 10L18 10L18 9L17 9L17 8L18 8L18 7L19 7L19 6L20 6L20 8L19 8L19 9L20 9L20 8L21 8L21 6L20 6L20 5L19 5L19 4L20 4L20 2L21 2L21 1L20 1L20 0L17 0L17 1L18 1L18 2L16 2L16 0L14 0L14 3L18 3L18 7L17 7L17 4L14 4L14 5L13 5L13 6L12 6L12 5L11 5L11 6L10 6L10 5L9 5L9 4L12 4L12 3L13 3L13 0L12 0L12 1L11 1L11 2L9 2L9 1L10 1L10 0ZM19 1L19 2L18 2L18 3L19 3L19 2L20 2L20 1ZM14 5L14 6L15 6L15 7L16 7L16 6L15 6L15 5ZM9 6L9 7L10 7L10 6ZM8 8L8 9L9 9L9 10L10 10L10 8ZM23 9L23 11L22 11L22 10L21 10L21 11L22 11L22 12L23 12L23 13L22 13L22 15L20 15L20 16L22 16L22 17L19 17L19 16L18 16L18 17L17 17L17 16L16 16L16 17L15 17L15 16L14 16L14 17L13 17L13 16L12 16L12 14L8 14L8 13L6 13L6 14L7 14L7 15L2 15L2 14L1 14L1 15L2 15L2 16L3 16L3 18L5 18L5 16L7 16L7 15L8 15L8 18L9 18L9 19L5 19L5 20L9 20L9 19L10 19L10 21L9 21L9 22L10 22L10 23L11 23L11 19L12 19L12 20L13 20L13 21L14 21L14 24L13 24L13 25L12 25L12 26L13 26L13 27L14 27L14 25L15 25L15 28L16 28L16 25L15 25L15 24L16 24L16 22L17 22L17 21L18 21L18 22L19 22L19 24L18 24L18 23L17 23L17 24L18 24L18 26L19 26L19 25L20 25L20 22L19 22L19 21L20 21L20 20L23 20L23 19L22 19L22 17L24 17L24 20L25 20L25 25L27 25L27 24L26 24L26 23L27 23L27 22L26 22L26 20L27 20L27 18L28 18L28 17L27 17L27 15L26 15L26 13L27 13L27 12L26 12L26 13L25 13L25 12L23 12L23 11L24 11L24 10L25 10L25 9ZM26 9L26 10L28 10L28 9ZM1 10L1 11L2 11L2 10ZM19 11L19 13L21 13L21 12L20 12L20 11ZM4 13L4 14L5 14L5 13ZM24 14L24 15L22 15L22 16L24 16L24 15L25 15L25 17L26 17L26 15L25 15L25 14ZM10 15L10 17L9 17L9 18L10 18L10 19L11 19L11 18L10 18L10 17L12 17L12 16L11 16L11 15ZM6 17L6 18L7 18L7 17ZM14 17L14 18L13 18L13 19L14 19L14 18L15 18L15 17ZM18 17L18 18L17 18L17 19L16 19L16 20L20 20L20 19L21 19L21 18L20 18L20 19L19 19L19 17ZM0 18L0 19L1 19L1 18ZM25 18L25 19L26 19L26 18ZM0 20L0 21L1 21L1 20ZM14 20L14 21L15 21L15 20ZM21 21L21 24L24 24L24 21ZM22 22L22 23L23 23L23 22ZM10 25L10 26L11 26L11 25ZM21 25L21 26L22 26L22 25ZM8 27L8 29L9 29L9 27ZM0 0L0 7L7 7L7 0ZM1 1L1 6L6 6L6 1ZM2 2L2 5L5 5L5 2ZM22 0L22 7L29 7L29 0ZM23 1L23 6L28 6L28 1ZM24 2L24 5L27 5L27 2ZM0 22L0 29L7 29L7 22ZM1 23L1 28L6 28L6 23ZM2 24L2 27L5 27L5 24Z" fill="#000000"/></g></g></svg>
