<?xml version="1.0" encoding="UTF-8"?>
<svg xmlns="http://www.w3.org/2000/svg" version="1.1" width="300" height="300" viewBox="0 0 300 300"><rect x="0" y="0" width="300" height="300" fill="#ffffff"/><g transform="scale(10.345)"><g transform="translate(0,0)"><path fill-rule="evenodd" d="M9 0L9 1L8 1L8 3L9 3L9 4L8 4L8 8L6 8L6 9L8 9L8 8L10 8L10 10L9 10L9 11L7 11L7 10L5 10L5 11L4 11L4 13L5 13L5 14L3 14L3 13L2 13L2 12L1 12L1 10L0 10L0 12L1 12L1 14L3 14L3 15L2 15L2 17L1 17L1 18L0 18L0 19L1 19L1 18L2 18L2 19L3 19L3 18L4 18L4 20L5 20L5 21L7 21L7 20L5 20L5 19L9 19L9 16L12 16L12 14L11 14L11 13L10 13L10 14L9 14L9 13L8 13L8 12L9 12L9 11L11 11L11 12L12 12L12 11L11 11L11 10L12 10L12 9L13 9L13 13L14 13L14 11L15 11L15 13L16 13L16 15L17 15L17 16L16 16L16 17L18 17L18 18L17 18L17 19L16 19L16 20L20 20L20 21L19 21L19 22L18 22L18 21L17 21L17 22L16 22L16 24L14 24L14 22L13 22L13 21L14 21L14 20L15 20L15 19L14 19L14 20L13 20L13 19L11 19L11 17L10 17L10 20L11 20L11 21L8 21L8 23L9 23L9 22L12 22L12 23L10 23L10 24L9 24L9 25L8 25L8 26L11 26L11 27L10 27L10 28L11 28L11 29L14 29L14 28L15 28L15 29L16 29L16 28L17 28L17 29L18 29L18 28L19 28L19 29L21 29L21 27L22 27L22 26L24 26L24 28L23 28L23 29L24 29L24 28L25 28L25 29L26 29L26 28L25 28L25 26L27 26L27 25L25 25L25 20L24 20L24 17L22 17L22 16L24 16L24 15L25 15L25 17L26 17L26 15L27 15L27 17L28 17L28 18L27 18L27 20L26 20L26 22L27 22L27 23L26 23L26 24L28 24L28 25L29 25L29 24L28 24L28 22L29 22L29 21L27 21L27 20L29 20L29 17L28 17L28 15L29 15L29 14L27 14L27 13L29 13L29 12L28 12L28 10L29 10L29 9L28 9L28 8L26 8L26 9L25 9L25 8L22 8L22 9L21 9L21 10L19 10L19 11L18 11L18 12L17 12L17 10L18 10L18 9L17 9L17 8L18 8L18 7L19 7L19 6L20 6L20 8L19 8L19 9L20 9L20 8L21 8L21 6L20 6L20 5L19 5L19 4L20 4L20 2L21 2L21 1L20 1L20 0L17 0L17 1L18 1L18 2L17 2L17 3L15 3L15 2L16 2L16 0L14 0L14 1L13 1L13 0L12 0L12 1L11 1L11 2L9 2L9 1L10 1L10 0ZM19 1L19 2L18 2L18 3L17 3L17 5L16 5L16 6L15 6L15 5L13 5L13 4L14 4L14 2L13 2L13 3L12 3L12 4L9 4L9 5L10 5L10 6L9 6L9 7L10 7L10 8L11 8L11 9L12 9L12 6L13 6L13 8L14 8L14 6L15 6L15 7L16 7L16 8L17 8L17 7L18 7L18 3L19 3L19 2L20 2L20 1ZM11 5L11 6L10 6L10 7L11 7L11 6L12 6L12 5ZM16 6L16 7L17 7L17 6ZM0 8L0 9L2 9L2 8ZM3 8L3 10L4 10L4 8ZM14 9L14 10L15 10L15 11L16 11L16 10L15 10L15 9ZM23 9L23 11L22 11L22 10L21 10L21 11L22 11L22 12L23 12L23 13L22 13L22 15L20 15L20 14L19 14L19 13L21 13L21 12L20 12L20 11L19 11L19 13L17 13L17 15L20 15L20 16L22 16L22 15L24 15L24 14L25 14L25 15L26 15L26 13L27 13L27 12L26 12L26 13L25 13L25 12L23 12L23 11L24 11L24 10L25 10L25 9ZM26 9L26 10L28 10L28 9ZM6 11L6 12L5 12L5 13L6 13L6 14L5 14L5 16L7 16L7 17L4 17L4 18L8 18L8 16L7 16L7 15L6 15L6 14L7 14L7 13L6 13L6 12L7 12L7 11ZM10 14L10 15L11 15L11 14ZM13 14L13 16L15 16L15 14ZM0 15L0 16L1 16L1 15ZM3 15L3 16L4 16L4 15ZM18 16L18 17L19 17L19 19L20 19L20 20L23 20L23 19L22 19L22 17L19 17L19 16ZM2 17L2 18L3 18L3 17ZM12 17L12 18L15 18L15 17ZM20 18L20 19L21 19L21 18ZM25 18L25 19L26 19L26 18ZM0 20L0 21L1 21L1 20ZM12 20L12 21L13 21L13 20ZM21 21L21 24L24 24L24 21ZM19 22L19 24L18 24L18 23L17 23L17 24L18 24L18 26L19 26L19 25L20 25L20 22ZM22 22L22 23L23 23L23 22ZM12 23L12 25L13 25L13 23ZM15 25L15 26L13 26L13 27L11 27L11 28L13 28L13 27L15 27L15 28L16 28L16 25ZM21 25L21 26L22 26L22 25ZM28 26L28 27L27 27L27 29L28 29L28 27L29 27L29 26ZM8 27L8 29L9 29L9 27ZM0 0L0 7L7 7L7 0ZM1 1L1 6L6 6L6 1ZM2 2L2 5L5 5L5 2ZM22 0L22 7L29 7L29 0ZM23 1L23 6L28 6L28 1ZM24 2L24 5L27 5L27 2ZM0 22L0 29L7 29L7 22ZM1 23L1 28L6 28L6 23ZM2 24L2 27L5 27L5 24Z" fill="#000000"/></g></g></svg>
