<?xml version="1.0" encoding="UTF-8"?>
<svg xmlns="http://www.w3.org/2000/svg" version="1.1" width="300" height="300" viewBox="0 0 300 300"><rect x="0" y="0" width="300" height="300" fill="#ffffff"/><g transform="scale(10.345)"><g transform="translate(0,0)"><path fill-rule="evenodd" d="M9 0L9 1L11 1L11 2L9 2L9 3L8 3L8 5L9 5L9 6L8 6L8 7L9 7L9 9L10 9L10 10L9 10L9 11L7 11L7 10L6 10L6 11L7 11L7 12L6 12L6 13L5 13L5 9L8 9L8 8L5 8L5 9L2 9L2 8L0 8L0 9L1 9L1 10L2 10L2 11L1 11L1 12L0 12L0 13L1 13L1 14L0 14L0 16L3 16L3 17L0 17L0 21L1 21L1 19L2 19L2 20L3 20L3 21L7 21L7 20L5 20L5 19L8 19L8 24L9 24L9 25L10 25L10 26L11 26L11 25L12 25L12 23L11 23L11 20L9 20L9 19L10 19L10 16L11 16L11 12L12 12L12 14L13 14L13 12L12 12L12 11L14 11L14 12L15 12L15 11L16 11L16 14L14 14L14 15L18 15L18 14L20 14L20 16L22 16L22 15L24 15L24 16L25 16L25 13L24 13L24 11L25 11L25 9L26 9L26 10L28 10L28 9L26 9L26 8L24 8L24 9L23 9L23 10L21 10L21 9L20 9L20 8L21 8L21 3L20 3L20 2L21 2L21 1L20 1L20 2L19 2L19 3L20 3L20 4L18 4L18 3L17 3L17 2L18 2L18 1L19 1L19 0L18 0L18 1L16 1L16 8L15 8L15 6L14 6L14 8L13 8L13 6L12 6L12 9L14 9L14 10L11 10L11 8L10 8L10 7L11 7L11 4L12 4L12 5L13 5L13 4L14 4L14 3L15 3L15 0L13 0L13 1L12 1L12 0ZM12 2L12 4L13 4L13 3L14 3L14 2ZM9 3L9 5L10 5L10 3ZM17 4L17 8L18 8L18 9L16 9L16 11L17 11L17 13L18 13L18 12L19 12L19 11L20 11L20 13L21 13L21 15L22 15L22 12L23 12L23 11L24 11L24 10L23 10L23 11L21 11L21 10L18 10L18 9L19 9L19 8L20 8L20 5L18 5L18 4ZM9 6L9 7L10 7L10 6ZM18 6L18 8L19 8L19 6ZM3 10L3 11L2 11L2 12L3 12L3 14L1 14L1 15L4 15L4 18L3 18L3 20L4 20L4 19L5 19L5 17L6 17L6 18L9 18L9 17L6 17L6 16L7 16L7 15L6 15L6 14L9 14L9 16L10 16L10 14L9 14L9 12L10 12L10 11L11 11L11 10L10 10L10 11L9 11L9 12L7 12L7 13L6 13L6 14L5 14L5 15L4 15L4 10ZM28 12L28 13L26 13L26 17L19 17L19 18L18 18L18 19L19 19L19 20L20 20L20 22L19 22L19 21L18 21L18 20L17 20L17 18L16 18L16 17L15 17L15 19L14 19L14 16L12 16L12 17L13 17L13 18L11 18L11 19L14 19L14 20L12 20L12 21L14 21L14 20L15 20L15 22L14 22L14 24L13 24L13 26L12 26L12 27L10 27L10 28L9 28L9 27L8 27L8 29L10 29L10 28L11 28L11 29L13 29L13 28L12 28L12 27L13 27L13 26L15 26L15 28L14 28L14 29L15 29L15 28L16 28L16 25L17 25L17 23L19 23L19 25L18 25L18 27L21 27L21 29L22 29L22 28L23 28L23 29L24 29L24 27L25 27L25 28L26 28L26 29L27 29L27 27L28 27L28 28L29 28L29 27L28 27L28 26L29 26L29 25L28 25L28 26L27 26L27 25L26 25L26 23L27 23L27 24L29 24L29 23L27 23L27 22L26 22L26 21L29 21L29 20L26 20L26 21L25 21L25 19L24 19L24 20L23 20L23 18L28 18L28 19L29 19L29 17L27 17L27 14L29 14L29 12ZM28 15L28 16L29 16L29 15ZM17 16L17 17L18 17L18 16ZM15 19L15 20L16 20L16 19ZM20 19L20 20L21 20L21 19ZM17 21L17 22L18 22L18 21ZM21 21L21 24L24 24L24 21ZM9 22L9 23L10 23L10 25L11 25L11 23L10 23L10 22ZM22 22L22 23L23 23L23 22ZM14 24L14 25L16 25L16 24ZM22 25L22 26L21 26L21 27L22 27L22 26L25 26L25 27L27 27L27 26L25 26L25 25ZM17 28L17 29L18 29L18 28ZM0 0L0 7L7 7L7 0ZM1 1L1 6L6 6L6 1ZM2 2L2 5L5 5L5 2ZM22 0L22 7L29 7L29 0ZM23 1L23 6L28 6L28 1ZM24 2L24 5L27 5L27 2ZM0 22L0 29L7 29L7 22ZM1 23L1 28L6 28L6 23ZM2 24L2 27L5 27L5 24Z" fill="#000000"/></g></g></svg>
