<?xml version="1.0" encoding="UTF-8"?>
<svg xmlns="http://www.w3.org/2000/svg" version="1.1" width="300" height="300" viewBox="0 0 300 300"><rect x="0" y="0" width="300" height="300" fill="#ffffff"/><g transform="scale(10.345)"><g transform="translate(0,0)"><path fill-rule="evenodd" d="M11 0L11 1L9 1L9 2L11 2L11 1L13 1L13 2L12 2L12 4L14 4L14 3L17 3L17 4L16 4L16 5L17 5L17 4L18 4L18 5L20 5L20 8L19 8L19 6L18 6L18 8L17 8L17 6L16 6L16 8L17 8L17 9L18 9L18 10L21 10L21 11L23 11L23 12L22 12L22 15L21 15L21 13L20 13L20 11L19 11L19 12L18 12L18 13L17 13L17 10L15 10L15 5L11 5L11 6L10 6L10 8L9 8L9 9L8 9L8 8L5 8L5 9L2 9L2 8L0 8L0 9L2 9L2 11L3 11L3 12L2 12L2 13L1 13L1 10L0 10L0 13L1 13L1 14L3 14L3 17L2 17L2 16L1 16L1 15L0 15L0 21L1 21L1 19L2 19L2 18L3 18L3 20L2 20L2 21L3 21L3 20L4 20L4 21L5 21L5 20L6 20L6 21L7 21L7 20L8 20L8 24L9 24L9 23L10 23L10 22L11 22L11 21L13 21L13 22L14 22L14 24L13 24L13 23L12 23L12 24L13 24L13 26L12 26L12 28L11 28L11 29L13 29L13 27L14 27L14 24L16 24L16 25L15 25L15 28L14 28L14 29L15 29L15 28L16 28L16 25L17 25L17 23L19 23L19 25L18 25L18 27L21 27L21 29L22 29L22 28L23 28L23 29L24 29L24 27L25 27L25 28L26 28L26 29L27 29L27 27L28 27L28 28L29 28L29 27L28 27L28 26L29 26L29 24L27 24L27 25L26 25L26 23L27 23L27 22L26 22L26 21L29 21L29 20L26 20L26 21L25 21L25 19L24 19L24 20L23 20L23 18L28 18L28 19L29 19L29 17L27 17L27 14L29 14L29 12L28 12L28 13L26 13L26 17L19 17L19 18L18 18L18 19L19 19L19 20L20 20L20 22L19 22L19 21L18 21L18 20L17 20L17 18L16 18L16 17L18 17L18 16L11 16L11 17L15 17L15 19L14 19L14 18L13 18L13 19L14 19L14 20L11 20L11 19L12 19L12 18L11 18L11 19L10 19L10 18L9 18L9 17L10 17L10 15L11 15L11 14L13 14L13 15L16 15L16 13L17 13L17 15L18 15L18 14L20 14L20 16L22 16L22 15L24 15L24 16L25 16L25 13L24 13L24 11L25 11L25 9L26 9L26 10L28 10L28 9L26 9L26 8L24 8L24 9L23 9L23 10L21 10L21 9L20 9L20 8L21 8L21 3L20 3L20 2L21 2L21 1L20 1L20 2L19 2L19 3L20 3L20 4L18 4L18 3L17 3L17 2L18 2L18 1L19 1L19 0L18 0L18 1L16 1L16 2L15 2L15 0ZM13 2L13 3L14 3L14 2ZM8 3L8 5L10 5L10 4L9 4L9 3ZM8 6L8 7L9 7L9 6ZM11 6L11 7L12 7L12 8L14 8L14 6L13 6L13 7L12 7L12 6ZM10 8L10 10L9 10L9 11L6 11L6 10L7 10L7 9L6 9L6 10L4 10L4 11L5 11L5 12L4 12L4 13L5 13L5 14L7 14L7 13L8 13L8 14L9 14L9 15L10 15L10 14L11 14L11 13L13 13L13 14L15 14L15 13L16 13L16 11L15 11L15 10L14 10L14 9L13 9L13 10L12 10L12 9L11 9L11 8ZM18 8L18 9L19 9L19 8ZM10 10L10 11L9 11L9 13L10 13L10 11L11 11L11 10ZM23 10L23 11L24 11L24 10ZM12 11L12 12L13 12L13 11ZM14 11L14 12L15 12L15 11ZM5 12L5 13L7 13L7 12ZM4 15L4 17L3 17L3 18L4 18L4 17L5 17L5 16L7 16L7 15ZM28 15L28 16L29 16L29 15ZM8 16L8 17L9 17L9 16ZM1 17L1 18L2 18L2 17ZM6 17L6 18L5 18L5 19L4 19L4 20L5 20L5 19L6 19L6 20L7 20L7 19L9 19L9 18L7 18L7 17ZM6 18L6 19L7 19L7 18ZM15 19L15 20L14 20L14 21L15 21L15 20L16 20L16 19ZM20 19L20 20L21 20L21 19ZM17 21L17 22L18 22L18 21ZM21 21L21 24L24 24L24 21ZM22 22L22 23L23 23L23 22ZM10 24L10 25L9 25L9 27L8 27L8 29L9 29L9 27L11 27L11 26L10 26L10 25L11 25L11 24ZM22 25L22 26L21 26L21 27L22 27L22 26L25 26L25 27L27 27L27 26L25 26L25 25ZM17 28L17 29L18 29L18 28ZM0 0L0 7L7 7L7 0ZM1 1L1 6L6 6L6 1ZM2 2L2 5L5 5L5 2ZM22 0L22 7L29 7L29 0ZM23 1L23 6L28 6L28 1ZM24 2L24 5L27 5L27 2ZM0 22L0 29L7 29L7 22ZM1 23L1 28L6 28L6 23ZM2 24L2 27L5 27L5 24Z" fill="#000000"/></g></g></svg>
