<?xml version="1.0" encoding="UTF-8"?>
<svg xmlns="http://www.w3.org/2000/svg" version="1.1" width="300" height="300" viewBox="0 0 300 300"><rect x="0" y="0" width="300" height="300" fill="#ffffff"/><g transform="scale(10.345)"><g transform="translate(0,0)"><path fill-rule="evenodd" d="M8 0L8 4L10 4L10 3L11 3L11 4L12 4L12 2L11 2L11 0ZM12 0L12 1L16 1L16 2L14 2L14 3L13 3L13 5L11 5L11 6L10 6L10 7L9 7L9 5L8 5L8 7L9 7L9 8L10 8L10 7L11 7L11 6L12 6L12 8L11 8L11 9L9 9L9 10L8 10L8 9L7 9L7 8L4 8L4 9L3 9L3 10L2 10L2 8L0 8L0 9L1 9L1 10L2 10L2 11L1 11L1 13L0 13L0 14L1 14L1 15L0 15L0 18L2 18L2 20L0 20L0 21L2 21L2 20L3 20L3 21L4 21L4 20L3 20L3 18L2 18L2 17L4 17L4 19L5 19L5 18L6 18L6 19L7 19L7 20L6 20L6 21L8 21L8 22L9 22L9 21L10 21L10 20L12 20L12 21L13 21L13 19L12 19L12 18L11 18L11 17L13 17L13 18L14 18L14 24L12 24L12 25L14 25L14 26L13 26L13 27L14 27L14 26L15 26L15 27L17 27L17 29L18 29L18 28L19 28L19 29L21 29L21 26L22 26L22 25L26 25L26 23L27 23L27 24L29 24L29 17L28 17L28 16L29 16L29 13L28 13L28 12L29 12L29 8L25 8L25 9L24 9L24 8L23 8L23 9L22 9L22 10L21 10L21 6L20 6L20 5L19 5L19 3L20 3L20 1L19 1L19 0ZM18 1L18 2L19 2L19 1ZM9 2L9 3L10 3L10 2ZM16 2L16 4L17 4L17 5L13 5L13 9L15 9L15 10L12 10L12 9L11 9L11 10L9 10L9 12L8 12L8 10L7 10L7 9L5 9L5 10L4 10L4 11L3 11L3 12L2 12L2 16L3 16L3 14L4 14L4 17L6 17L6 18L7 18L7 19L8 19L8 21L9 21L9 20L10 20L10 19L9 19L9 18L10 18L10 17L9 17L9 18L8 18L8 17L6 17L6 16L8 16L8 15L9 15L9 16L10 16L10 15L11 15L11 14L12 14L12 15L13 15L13 17L16 17L16 18L17 18L17 19L16 19L16 20L15 20L15 21L16 21L16 23L15 23L15 24L14 24L14 25L15 25L15 24L16 24L16 26L18 26L18 27L19 27L19 28L20 28L20 27L19 27L19 26L21 26L21 25L19 25L19 24L18 24L18 25L17 25L17 23L19 23L19 22L18 22L18 21L19 21L19 20L18 20L18 21L16 21L16 20L17 20L17 19L20 19L20 20L23 20L23 19L24 19L24 20L26 20L26 21L25 21L25 22L27 22L27 23L28 23L28 20L27 20L27 19L28 19L28 18L27 18L27 15L28 15L28 14L27 14L27 11L28 11L28 10L24 10L24 11L23 11L23 10L22 10L22 11L23 11L23 12L22 12L22 13L21 13L21 10L20 10L20 6L19 6L19 5L18 5L18 3L17 3L17 2ZM14 6L14 8L15 8L15 9L16 9L16 10L15 10L15 11L14 11L14 12L15 12L15 13L13 13L13 15L14 15L14 16L15 16L15 15L17 15L17 16L16 16L16 17L18 17L18 16L19 16L19 17L21 17L21 19L23 19L23 18L24 18L24 19L27 19L27 18L25 18L25 17L26 17L26 16L25 16L25 17L22 17L22 16L19 16L19 13L20 13L20 11L19 11L19 9L18 9L18 7L19 7L19 6L18 6L18 7L17 7L17 6L16 6L16 7L15 7L15 6ZM16 7L16 9L17 9L17 10L16 10L16 14L17 14L17 15L18 15L18 14L17 14L17 10L18 10L18 9L17 9L17 7ZM6 10L6 11L7 11L7 10ZM11 10L11 11L10 11L10 13L8 13L8 14L6 14L6 13L7 13L7 12L6 12L6 13L4 13L4 12L5 12L5 11L4 11L4 12L3 12L3 13L4 13L4 14L6 14L6 15L5 15L5 16L6 16L6 15L8 15L8 14L10 14L10 13L11 13L11 12L12 12L12 10ZM24 11L24 12L25 12L25 11ZM22 13L22 14L26 14L26 15L27 15L27 14L26 14L26 13ZM20 14L20 15L21 15L21 14ZM23 15L23 16L24 16L24 15ZM21 21L21 24L24 24L24 21ZM11 22L11 23L12 23L12 22ZM22 22L22 23L23 23L23 22ZM8 23L8 25L9 25L9 27L8 27L8 29L9 29L9 28L10 28L10 26L11 26L11 27L12 27L12 26L11 26L11 24L10 24L10 25L9 25L9 23ZM18 25L18 26L19 26L19 25ZM27 25L27 29L28 29L28 28L29 28L29 25ZM22 27L22 28L23 28L23 29L24 29L24 28L25 28L25 29L26 29L26 27L24 27L24 28L23 28L23 27ZM12 28L12 29L14 29L14 28ZM15 28L15 29L16 29L16 28ZM0 0L0 7L7 7L7 0ZM1 1L1 6L6 6L6 1ZM2 2L2 5L5 5L5 2ZM22 0L22 7L29 7L29 0ZM23 1L23 6L28 6L28 1ZM24 2L24 5L27 5L27 2ZM0 22L0 29L7 29L7 22ZM1 23L1 28L6 28L6 23ZM2 24L2 27L5 27L5 24Z" fill="#000000"/></g></g></svg>
