<?xml version="1.0" encoding="UTF-8"?>
<svg xmlns="http://www.w3.org/2000/svg" version="1.1" width="300" height="300" viewBox="0 0 300 300"><rect x="0" y="0" width="300" height="300" fill="#ffffff"/><g transform="scale(10.345)"><g transform="translate(0,0)"><path fill-rule="evenodd" d="M8 0L8 1L9 1L9 2L8 2L8 5L9 5L9 4L11 4L11 5L10 5L10 10L9 10L9 8L8 8L8 11L7 11L7 10L6 10L6 11L7 11L7 12L5 12L5 9L4 9L4 8L0 8L0 11L1 11L1 13L2 13L2 14L3 14L3 15L2 15L2 17L1 17L1 16L0 16L0 17L1 17L1 18L0 18L0 19L1 19L1 18L3 18L3 19L2 19L2 20L1 20L1 21L4 21L4 20L5 20L5 21L8 21L8 22L9 22L9 20L11 20L11 21L12 21L12 19L11 19L11 18L10 18L10 17L8 17L8 18L9 18L9 19L8 19L8 20L5 20L5 19L7 19L7 18L5 18L5 17L4 17L4 16L3 16L3 15L5 15L5 14L6 14L6 15L7 15L7 16L6 16L6 17L7 17L7 16L10 16L10 15L9 15L9 14L10 14L10 13L11 13L11 14L13 14L13 13L14 13L14 16L11 16L11 17L12 17L12 18L14 18L14 19L16 19L16 20L17 20L17 21L18 21L18 22L19 22L19 23L18 23L18 24L17 24L17 26L16 26L16 25L15 25L15 24L16 24L16 23L17 23L17 22L16 22L16 23L13 23L13 24L14 24L14 25L15 25L15 26L16 26L16 28L15 28L15 27L14 27L14 28L15 28L15 29L16 29L16 28L17 28L17 26L18 26L18 24L19 24L19 23L20 23L20 25L19 25L19 26L20 26L20 29L21 29L21 27L22 27L22 25L23 25L23 28L24 28L24 29L25 29L25 28L26 28L26 25L27 25L27 26L28 26L28 27L27 27L27 29L28 29L28 27L29 27L29 25L28 25L28 24L29 24L29 23L28 23L28 22L29 22L29 21L27 21L27 18L28 18L28 15L29 15L29 13L27 13L27 12L26 12L26 11L28 11L28 12L29 12L29 11L28 11L28 10L29 10L29 8L28 8L28 10L26 10L26 11L24 11L24 10L25 10L25 9L27 9L27 8L24 8L24 9L22 9L22 8L21 8L21 10L20 10L20 9L19 9L19 8L18 8L18 7L19 7L19 6L20 6L20 7L21 7L21 5L20 5L20 4L19 4L19 5L18 5L18 3L19 3L19 1L21 1L21 0L16 0L16 2L17 2L17 1L18 1L18 3L15 3L15 2L14 2L14 1L13 1L13 0L12 0L12 1L11 1L11 0L10 0L10 1L9 1L9 0ZM11 2L11 4L12 4L12 3L13 3L13 2ZM13 4L13 5L12 5L12 6L11 6L11 8L12 8L12 9L11 9L11 10L12 10L12 9L13 9L13 11L11 11L11 13L13 13L13 11L14 11L14 10L15 10L15 13L16 13L16 14L15 14L15 15L16 15L16 14L19 14L19 13L20 13L20 14L22 14L22 15L17 15L17 18L18 18L18 16L19 16L19 19L21 19L21 18L20 18L20 16L22 16L22 19L23 19L23 16L24 16L24 15L25 15L25 17L24 17L24 20L26 20L26 19L25 19L25 18L26 18L26 17L27 17L27 15L25 15L25 14L27 14L27 13L25 13L25 12L22 12L22 10L21 10L21 11L20 11L20 10L19 10L19 13L17 13L17 12L18 12L18 11L16 11L16 10L15 10L15 9L14 9L14 8L16 8L16 5L15 5L15 7L14 7L14 4ZM17 5L17 7L18 7L18 5ZM8 6L8 7L9 7L9 6ZM12 6L12 8L13 8L13 6ZM6 8L6 9L7 9L7 8ZM2 9L2 10L1 10L1 11L2 11L2 13L3 13L3 14L4 14L4 13L5 13L5 12L3 12L3 11L2 11L2 10L4 10L4 9ZM17 9L17 10L18 10L18 9ZM8 11L8 12L9 12L9 11ZM20 12L20 13L21 13L21 12ZM6 13L6 14L7 14L7 15L8 15L8 14L9 14L9 13ZM22 13L22 14L23 14L23 15L22 15L22 16L23 16L23 15L24 15L24 14L23 14L23 13ZM0 14L0 15L1 15L1 14ZM14 16L14 18L15 18L15 17L16 17L16 16ZM4 18L4 19L3 19L3 20L4 20L4 19L5 19L5 18ZM13 21L13 22L14 22L14 21ZM19 21L19 22L20 22L20 21ZM21 21L21 24L24 24L24 21ZM10 22L10 23L9 23L9 25L8 25L8 29L10 29L10 28L11 28L11 29L12 29L12 27L11 27L11 26L13 26L13 25L11 25L11 26L10 26L10 24L11 24L11 23L12 23L12 22ZM22 22L22 23L23 23L23 22ZM26 22L26 23L25 23L25 25L26 25L26 24L28 24L28 23L27 23L27 22ZM20 25L20 26L21 26L21 25ZM9 26L9 27L10 27L10 26ZM24 26L24 28L25 28L25 26ZM18 28L18 29L19 29L19 28ZM0 0L0 7L7 7L7 0ZM1 1L1 6L6 6L6 1ZM2 2L2 5L5 5L5 2ZM22 0L22 7L29 7L29 0ZM23 1L23 6L28 6L28 1ZM24 2L24 5L27 5L27 2ZM0 22L0 29L7 29L7 22ZM1 23L1 28L6 28L6 23ZM2 24L2 27L5 27L5 24Z" fill="#000000"/></g></g></svg>
