<?xml version="1.0" encoding="UTF-8"?>
<svg xmlns="http://www.w3.org/2000/svg" version="1.1" width="300" height="300" viewBox="0 0 300 300"><rect x="0" y="0" width="300" height="300" fill="#ffffff"/><g transform="scale(10.345)"><g transform="translate(0,0)"><path fill-rule="evenodd" d="M10 0L10 1L8 1L8 3L9 3L9 4L8 4L8 8L6 8L6 9L7 9L7 10L4 10L4 11L3 11L3 12L4 12L4 13L5 13L5 14L6 14L6 15L5 15L5 16L3 16L3 15L0 15L0 17L3 17L3 18L5 18L5 19L7 19L7 20L6 20L6 21L7 21L7 20L8 20L8 23L9 23L9 25L8 25L8 26L10 26L10 27L8 27L8 29L14 29L14 27L15 27L15 26L14 26L14 25L11 25L11 26L10 26L10 23L11 23L11 24L14 24L14 23L15 23L15 22L13 22L13 21L12 21L12 20L13 20L13 19L11 19L11 18L9 18L9 17L7 17L7 16L8 16L8 14L10 14L10 13L11 13L11 16L10 16L10 15L9 15L9 16L10 16L10 17L11 17L11 16L14 16L14 18L15 18L15 17L16 17L16 16L17 16L17 17L18 17L18 18L16 18L16 19L17 19L17 20L20 20L20 21L19 21L19 22L18 22L18 21L17 21L17 22L16 22L16 24L15 24L15 25L16 25L16 28L15 28L15 29L16 29L16 28L17 28L17 29L18 29L18 28L19 28L19 29L21 29L21 27L22 27L22 26L24 26L24 28L23 28L23 29L24 29L24 28L25 28L25 29L26 29L26 28L25 28L25 26L28 26L28 27L27 27L27 29L28 29L28 27L29 27L29 26L28 26L28 24L29 24L29 23L28 23L28 22L29 22L29 21L27 21L27 20L29 20L29 17L28 17L28 15L29 15L29 14L27 14L27 13L29 13L29 12L28 12L28 10L29 10L29 9L28 9L28 8L26 8L26 9L25 9L25 8L22 8L22 9L21 9L21 10L19 10L19 11L18 11L18 12L17 12L17 11L15 11L15 14L14 14L14 15L12 15L12 13L14 13L14 11L13 11L13 10L14 10L14 9L15 9L15 8L16 8L16 7L17 7L17 8L18 8L18 7L19 7L19 6L20 6L20 8L19 8L19 9L20 9L20 8L21 8L21 6L20 6L20 5L19 5L19 4L20 4L20 2L21 2L21 1L20 1L20 0L17 0L17 1L18 1L18 2L17 2L17 3L18 3L18 7L17 7L17 4L16 4L16 0L14 0L14 1L13 1L13 2L14 2L14 4L13 4L13 3L12 3L12 7L11 7L11 4L10 4L10 3L9 3L9 2L11 2L11 0ZM19 1L19 2L18 2L18 3L19 3L19 2L20 2L20 1ZM9 5L9 8L8 8L8 10L9 10L9 11L11 11L11 8L10 8L10 5ZM13 6L13 7L12 7L12 8L14 8L14 6ZM15 6L15 7L16 7L16 6ZM0 8L0 11L1 11L1 12L0 12L0 14L2 14L2 10L3 10L3 9L4 9L4 8L3 8L3 9L2 9L2 8ZM9 9L9 10L10 10L10 9ZM16 9L16 10L18 10L18 9ZM23 9L23 11L22 11L22 10L21 10L21 11L22 11L22 12L23 12L23 13L22 13L22 15L20 15L20 14L19 14L19 13L21 13L21 12L20 12L20 11L19 11L19 13L16 13L16 14L15 14L15 15L20 15L20 16L22 16L22 17L19 17L19 16L18 16L18 17L19 17L19 19L20 19L20 20L23 20L23 19L22 19L22 17L24 17L24 20L25 20L25 25L27 25L27 24L28 24L28 23L27 23L27 22L26 22L26 20L27 20L27 18L28 18L28 17L27 17L27 15L26 15L26 13L27 13L27 12L26 12L26 13L25 13L25 12L23 12L23 11L24 11L24 10L25 10L25 9ZM26 9L26 10L28 10L28 9ZM4 11L4 12L5 12L5 11ZM6 11L6 12L8 12L8 13L6 13L6 14L8 14L8 13L10 13L10 12L8 12L8 11ZM24 14L24 15L22 15L22 16L24 16L24 15L25 15L25 17L26 17L26 15L25 15L25 14ZM6 15L6 16L5 16L5 18L7 18L7 17L6 17L6 16L7 16L7 15ZM12 17L12 18L13 18L13 17ZM0 18L0 19L1 19L1 18ZM20 18L20 19L21 19L21 18ZM25 18L25 19L26 19L26 18ZM8 19L8 20L10 20L10 21L11 21L11 19ZM14 19L14 21L15 21L15 19ZM0 20L0 21L1 21L1 20ZM2 20L2 21L4 21L4 20ZM21 21L21 24L24 24L24 21ZM11 22L11 23L12 23L12 22ZM19 22L19 24L18 24L18 23L17 23L17 24L18 24L18 26L19 26L19 25L20 25L20 22ZM22 22L22 23L23 23L23 22ZM26 23L26 24L27 24L27 23ZM21 25L21 26L22 26L22 25ZM12 26L12 27L11 27L11 28L13 28L13 26ZM0 0L0 7L7 7L7 0ZM1 1L1 6L6 6L6 1ZM2 2L2 5L5 5L5 2ZM22 0L22 7L29 7L29 0ZM23 1L23 6L28 6L28 1ZM24 2L24 5L27 5L27 2ZM0 22L0 29L7 29L7 22ZM1 23L1 28L6 28L6 23ZM2 24L2 27L5 27L5 24Z" fill="#000000"/></g></g></svg>
