<?xml version="1.0" encoding="UTF-8"?>
<svg xmlns="http://www.w3.org/2000/svg" version="1.1" width="300" height="300" viewBox="0 0 300 300"><rect x="0" y="0" width="300" height="300" fill="#ffffff"/><g transform="scale(10.345)"><g transform="translate(0,0)"><path fill-rule="evenodd" d="M8 0L8 1L11 1L11 3L10 3L10 2L9 2L9 3L10 3L10 5L9 5L9 6L8 6L8 8L9 8L9 9L10 9L10 10L8 10L8 9L7 9L7 8L6 8L6 9L7 9L7 10L2 10L2 11L1 11L1 12L0 12L0 21L2 21L2 19L4 19L4 21L8 21L8 22L10 22L10 21L11 21L11 23L9 23L9 24L8 24L8 26L9 26L9 27L8 27L8 29L9 29L9 27L10 27L10 29L13 29L13 28L11 28L11 27L10 27L10 26L9 26L9 25L10 25L10 24L12 24L12 25L13 25L13 26L12 26L12 27L14 27L14 28L16 28L16 27L17 27L17 26L16 26L16 25L17 25L17 24L18 24L18 23L19 23L19 25L18 25L18 27L19 27L19 25L21 25L21 26L20 26L20 27L21 27L21 28L20 28L20 29L22 29L22 28L24 28L24 27L25 27L25 28L27 28L27 27L28 27L28 28L29 28L29 25L28 25L28 26L27 26L27 27L26 27L26 26L23 26L23 27L21 27L21 26L22 26L22 25L26 25L26 21L28 21L28 20L27 20L27 19L24 19L24 20L23 20L23 18L22 18L22 17L21 17L21 16L22 16L22 15L21 15L21 14L19 14L19 13L20 13L20 11L22 11L22 14L23 14L23 15L24 15L24 16L23 16L23 17L24 17L24 18L28 18L28 19L29 19L29 18L28 18L28 17L24 17L24 16L25 16L25 15L26 15L26 16L27 16L27 14L28 14L28 16L29 16L29 11L28 11L28 13L27 13L27 14L26 14L26 13L24 13L24 12L23 12L23 11L25 11L25 9L23 9L23 8L22 8L22 9L23 9L23 10L21 10L21 9L18 9L18 8L20 8L20 7L21 7L21 5L20 5L20 4L21 4L21 3L20 3L20 4L18 4L18 3L16 3L16 5L17 5L17 6L16 6L16 8L14 8L14 7L15 7L15 6L14 6L14 7L13 7L13 6L12 6L12 5L13 5L13 4L14 4L14 5L15 5L15 4L14 4L14 3L15 3L15 2L13 2L13 1L15 1L15 0L13 0L13 1L12 1L12 0ZM18 0L18 1L16 1L16 2L18 2L18 1L19 1L19 2L20 2L20 1L19 1L19 0ZM12 2L12 4L13 4L13 2ZM10 5L10 6L9 6L9 7L10 7L10 9L11 9L11 10L10 10L10 11L9 11L9 12L11 12L11 14L10 14L10 15L9 15L9 16L8 16L8 15L5 15L5 12L7 12L7 11L4 11L4 13L3 13L3 14L2 14L2 12L3 12L3 11L2 11L2 12L1 12L1 15L3 15L3 17L2 17L2 16L1 16L1 17L2 17L2 18L4 18L4 19L5 19L5 20L8 20L8 21L10 21L10 20L11 20L11 21L13 21L13 18L12 18L12 17L13 17L13 16L15 16L15 17L14 17L14 20L15 20L15 17L18 17L18 18L16 18L16 19L17 19L17 20L16 20L16 21L17 21L17 23L16 23L16 24L15 24L15 25L14 25L14 22L15 22L15 21L14 21L14 22L13 22L13 23L12 23L12 24L13 24L13 25L14 25L14 27L15 27L15 25L16 25L16 24L17 24L17 23L18 23L18 21L19 21L19 22L20 22L20 21L19 21L19 20L20 20L20 19L18 19L18 18L19 18L19 17L20 17L20 15L19 15L19 14L18 14L18 15L17 15L17 14L16 14L16 12L17 12L17 13L18 13L18 12L19 12L19 11L20 11L20 10L18 10L18 9L17 9L17 8L18 8L18 6L19 6L19 7L20 7L20 5L18 5L18 6L17 6L17 8L16 8L16 11L15 11L15 10L14 10L14 8L13 8L13 9L12 9L12 6L11 6L11 5ZM10 6L10 7L11 7L11 6ZM0 8L0 10L1 10L1 9L2 9L2 8ZM3 8L3 9L5 9L5 8ZM28 8L28 9L26 9L26 11L27 11L27 10L28 10L28 9L29 9L29 8ZM12 10L12 11L14 11L14 12L15 12L15 11L14 11L14 10ZM17 10L17 12L18 12L18 10ZM12 12L12 16L11 16L11 15L10 15L10 16L11 16L11 17L8 17L8 18L6 18L6 17L7 17L7 16L5 16L5 15L4 15L4 16L5 16L5 17L4 17L4 18L5 18L5 19L10 19L10 18L11 18L11 20L12 20L12 18L11 18L11 17L12 17L12 16L13 16L13 15L16 15L16 14L15 14L15 13L13 13L13 12ZM6 13L6 14L7 14L7 13ZM8 13L8 14L9 14L9 13ZM17 20L17 21L18 21L18 20ZM21 21L21 24L24 24L24 21ZM22 22L22 23L23 23L23 22ZM27 23L27 24L28 24L28 23ZM0 0L0 7L7 7L7 0ZM1 1L1 6L6 6L6 1ZM2 2L2 5L5 5L5 2ZM22 0L22 7L29 7L29 0ZM23 1L23 6L28 6L28 1ZM24 2L24 5L27 5L27 2ZM0 22L0 29L7 29L7 22ZM1 23L1 28L6 28L6 23ZM2 24L2 27L5 27L5 24Z" fill="#000000"/></g></g></svg>
