<?xml version="1.0" encoding="UTF-8"?>
<svg xmlns="http://www.w3.org/2000/svg" version="1.1" width="300" height="300" viewBox="0 0 300 300"><rect x="0" y="0" width="300" height="300" fill="#ffffff"/><g transform="scale(10.345)"><g transform="translate(0,0)"><path fill-rule="evenodd" d="M8 0L8 4L10 4L10 3L11 3L11 4L12 4L12 2L11 2L11 0ZM12 0L12 1L16 1L16 2L14 2L14 3L13 3L13 5L11 5L11 6L10 6L10 7L9 7L9 5L8 5L8 7L9 7L9 8L10 8L10 7L11 7L11 6L12 6L12 8L11 8L11 9L9 9L9 10L11 10L11 11L10 11L10 13L11 13L11 14L10 14L10 16L9 16L9 14L8 14L8 17L7 17L7 16L5 16L5 13L9 13L9 11L8 11L8 10L6 10L6 11L8 11L8 12L5 12L5 10L4 10L4 9L7 9L7 8L4 8L4 9L3 9L3 12L2 12L2 14L1 14L1 11L0 11L0 15L2 15L2 14L3 14L3 18L2 18L2 16L0 16L0 18L2 18L2 19L3 19L3 18L4 18L4 20L3 20L3 21L4 21L4 20L6 20L6 21L8 21L8 22L9 22L9 23L8 23L8 25L9 25L9 27L8 27L8 29L9 29L9 27L10 27L10 25L13 25L13 26L11 26L11 29L12 29L12 27L14 27L14 28L13 28L13 29L14 29L14 28L15 28L15 29L16 29L16 28L15 28L15 27L17 27L17 29L18 29L18 28L19 28L19 29L21 29L21 26L22 26L22 25L26 25L26 23L27 23L27 24L29 24L29 17L28 17L28 16L29 16L29 13L28 13L28 12L29 12L29 8L25 8L25 9L24 9L24 8L23 8L23 9L22 9L22 10L21 10L21 6L20 6L20 5L19 5L19 3L20 3L20 1L19 1L19 0ZM18 1L18 2L19 2L19 1ZM9 2L9 3L10 3L10 2ZM16 2L16 4L17 4L17 5L13 5L13 9L15 9L15 10L13 10L13 11L12 11L12 13L15 13L15 12L14 12L14 11L15 11L15 10L16 10L16 15L15 15L15 16L14 16L14 15L13 15L13 14L12 14L12 16L10 16L10 18L9 18L9 17L8 17L8 18L9 18L9 19L10 19L10 18L13 18L13 19L12 19L12 20L11 20L11 21L13 21L13 22L12 22L12 23L11 23L11 24L12 24L12 23L13 23L13 24L14 24L14 25L15 25L15 24L16 24L16 26L18 26L18 27L19 27L19 28L20 28L20 27L19 27L19 26L21 26L21 25L19 25L19 24L18 24L18 25L17 25L17 23L19 23L19 22L18 22L18 21L19 21L19 20L18 20L18 21L16 21L16 20L17 20L17 19L20 19L20 20L23 20L23 19L24 19L24 20L26 20L26 21L25 21L25 22L27 22L27 23L28 23L28 20L27 20L27 19L28 19L28 18L27 18L27 15L28 15L28 14L27 14L27 11L28 11L28 10L24 10L24 11L23 11L23 10L22 10L22 11L23 11L23 12L22 12L22 13L21 13L21 10L20 10L20 6L19 6L19 5L18 5L18 3L17 3L17 2ZM14 6L14 8L15 8L15 9L16 9L16 10L17 10L17 14L18 14L18 15L16 15L16 17L13 17L13 18L14 18L14 24L15 24L15 23L16 23L16 21L15 21L15 19L16 19L16 17L18 17L18 16L19 16L19 17L21 17L21 19L23 19L23 18L24 18L24 19L27 19L27 18L25 18L25 17L26 17L26 16L25 16L25 17L22 17L22 16L19 16L19 13L20 13L20 11L19 11L19 9L18 9L18 7L19 7L19 6L18 6L18 7L17 7L17 6L16 6L16 7L15 7L15 6ZM16 7L16 9L17 9L17 10L18 10L18 9L17 9L17 7ZM0 8L0 10L1 10L1 9L2 9L2 8ZM11 9L11 10L12 10L12 9ZM24 11L24 12L25 12L25 11ZM4 12L4 13L3 13L3 14L4 14L4 13L5 13L5 12ZM22 13L22 14L26 14L26 15L27 15L27 14L26 14L26 13ZM6 14L6 15L7 15L7 14ZM20 14L20 15L21 15L21 14ZM23 15L23 16L24 16L24 15ZM6 17L6 18L5 18L5 19L6 19L6 20L8 20L8 21L10 21L10 20L8 20L8 19L6 19L6 18L7 18L7 17ZM0 20L0 21L2 21L2 20ZM21 21L21 24L24 24L24 21ZM22 22L22 23L23 23L23 22ZM9 23L9 25L10 25L10 23ZM18 25L18 26L19 26L19 25ZM27 25L27 29L28 29L28 28L29 28L29 25ZM14 26L14 27L15 27L15 26ZM22 27L22 28L23 28L23 29L24 29L24 28L25 28L25 29L26 29L26 27L24 27L24 28L23 28L23 27ZM0 0L0 7L7 7L7 0ZM1 1L1 6L6 6L6 1ZM2 2L2 5L5 5L5 2ZM22 0L22 7L29 7L29 0ZM23 1L23 6L28 6L28 1ZM24 2L24 5L27 5L27 2ZM0 22L0 29L7 29L7 22ZM1 23L1 28L6 28L6 23ZM2 24L2 27L5 27L5 24Z" fill="#000000"/></g></g></svg>
