<?xml version="1.0" encoding="UTF-8"?>
<svg xmlns="http://www.w3.org/2000/svg" version="1.1" width="300" height="300" viewBox="0 0 300 300"><rect x="0" y="0" width="300" height="300" fill="#ffffff"/><g transform="scale(10.345)"><g transform="translate(0,0)"><path fill-rule="evenodd" d="M9 0L9 1L11 1L11 2L9 2L9 3L8 3L8 5L9 5L9 6L8 6L8 7L9 7L9 9L10 9L10 10L8 10L8 8L5 8L5 9L2 9L2 8L0 8L0 12L1 12L1 14L0 14L0 15L3 15L3 18L1 18L1 17L2 17L2 16L1 16L1 17L0 17L0 21L1 21L1 19L5 19L5 20L2 20L2 21L5 21L5 20L6 20L6 21L7 21L7 20L6 20L6 19L7 19L7 18L6 18L6 17L8 17L8 16L6 16L6 15L7 15L7 14L5 14L5 13L7 13L7 12L8 12L8 15L10 15L10 18L11 18L11 12L12 12L12 11L13 11L13 10L14 10L14 12L13 12L13 13L12 13L12 14L13 14L13 15L12 15L12 17L13 17L13 18L12 18L12 19L9 19L9 20L8 20L8 24L9 24L9 26L10 26L10 29L11 29L11 28L12 28L12 29L13 29L13 28L12 28L12 27L14 27L14 29L15 29L15 28L16 28L16 25L17 25L17 23L19 23L19 25L18 25L18 27L21 27L21 29L22 29L22 28L23 28L23 29L24 29L24 27L25 27L25 28L26 28L26 29L27 29L27 27L28 27L28 28L29 28L29 27L28 27L28 26L29 26L29 25L28 25L28 26L27 26L27 25L26 25L26 23L27 23L27 24L28 24L28 23L27 23L27 22L26 22L26 21L29 21L29 20L26 20L26 21L25 21L25 19L24 19L24 20L23 20L23 18L28 18L28 19L29 19L29 17L27 17L27 14L29 14L29 12L28 12L28 13L26 13L26 17L19 17L19 18L18 18L18 19L19 19L19 20L20 20L20 22L19 22L19 21L18 21L18 20L16 20L16 21L15 21L15 20L14 20L14 21L13 21L13 20L12 20L12 19L17 19L17 18L16 18L16 17L18 17L18 16L17 16L17 15L18 15L18 14L20 14L20 16L22 16L22 15L24 15L24 16L25 16L25 13L24 13L24 11L25 11L25 9L26 9L26 10L28 10L28 9L26 9L26 8L24 8L24 9L23 9L23 10L21 10L21 9L20 9L20 8L21 8L21 3L20 3L20 2L21 2L21 1L20 1L20 2L19 2L19 3L20 3L20 4L18 4L18 3L16 3L16 2L18 2L18 1L19 1L19 0L18 0L18 1L16 1L16 2L14 2L14 1L15 1L15 0L14 0L14 1L12 1L12 0ZM12 2L12 4L11 4L11 7L10 7L10 6L9 6L9 7L10 7L10 8L11 8L11 10L10 10L10 11L9 11L9 12L10 12L10 11L11 11L11 10L13 10L13 9L12 9L12 6L13 6L13 8L14 8L14 9L15 9L15 10L17 10L17 13L16 13L16 11L15 11L15 12L14 12L14 14L15 14L15 13L16 13L16 15L15 15L15 16L16 16L16 15L17 15L17 13L18 13L18 12L19 12L19 11L20 11L20 13L21 13L21 15L22 15L22 12L23 12L23 11L24 11L24 10L23 10L23 11L21 11L21 10L18 10L18 9L19 9L19 8L20 8L20 5L18 5L18 4L17 4L17 5L16 5L16 4L15 4L15 3L14 3L14 2ZM9 3L9 5L10 5L10 3ZM13 3L13 4L12 4L12 5L13 5L13 4L14 4L14 3ZM14 5L14 8L15 8L15 9L16 9L16 7L17 7L17 6L16 6L16 7L15 7L15 5ZM18 6L18 8L17 8L17 9L18 9L18 8L19 8L19 6ZM6 9L6 10L4 10L4 11L3 11L3 12L2 12L2 10L1 10L1 12L2 12L2 13L5 13L5 11L6 11L6 12L7 12L7 11L8 11L8 10L7 10L7 9ZM6 10L6 11L7 11L7 10ZM9 13L9 14L10 14L10 13ZM3 14L3 15L5 15L5 14ZM13 15L13 17L14 17L14 15ZM28 15L28 16L29 16L29 15ZM4 16L4 18L5 18L5 17L6 17L6 16ZM20 19L20 20L21 20L21 19ZM9 20L9 23L10 23L10 24L11 24L11 27L12 27L12 26L14 26L14 25L16 25L16 24L14 24L14 23L15 23L15 21L14 21L14 22L12 22L12 21L11 21L11 20ZM10 21L10 23L11 23L11 21ZM17 21L17 22L18 22L18 21ZM21 21L21 24L24 24L24 21ZM22 22L22 23L23 23L23 22ZM12 23L12 24L13 24L13 25L14 25L14 24L13 24L13 23ZM22 25L22 26L21 26L21 27L22 27L22 26L25 26L25 27L27 27L27 26L25 26L25 25ZM8 27L8 29L9 29L9 27ZM17 28L17 29L18 29L18 28ZM0 0L0 7L7 7L7 0ZM1 1L1 6L6 6L6 1ZM2 2L2 5L5 5L5 2ZM22 0L22 7L29 7L29 0ZM23 1L23 6L28 6L28 1ZM24 2L24 5L27 5L27 2ZM0 22L0 29L7 29L7 22ZM1 23L1 28L6 28L6 23ZM2 24L2 27L5 27L5 24Z" fill="#000000"/></g></g></svg>
